<svg xmlns="http://www.w3.org/2000/svg" xmlns:xlink="http://www.w3.org/1999/xlink" viewBox="0 0 170 170.15">
  <defs>
    <style>
      .a {
        fill: #aaa;
      }

      .b {
        fill: #2e2e2e;
      }

      .c {
        clip-path: url(#a);
      }

      .d {
        fill: #dfdfdf;
      }

      .e {
        fill: #888;
      }
    </style>
    <clipPath id="a">
      <circle class="a" cx="85" cy="85" r="85"/>
    </clipPath>
  </defs>
  <title>avatar-mother-greyscale_1</title>
  <g>
    <circle class="b" cx="85" cy="85" r="85"/>
    <g>
      <circle class="a" cx="85" cy="85" r="85"/>
      <g class="c">
        <g>
          <path d="M85.16,147.52H54.75s-14-13.57-7-33.69S60.83,85.76,61.3,64.24H85.16Z"/>
          <path d="M84.37,147.52h30.41s14-13.57,7-33.69-13.1-28.07-13.57-49.59H84.37Z"/>
          <circle cx="85.16" cy="55.13" r="37.2"/>
          <polygon class="d" points="97.6 134.8 85 170.15 72.71 134.8 72.71 107.5 97.6 107.5 97.6 134.8"/>
          <path class="d" d="M47.95,78.6c-.53-5.14,1.92-9.71,5.47-10.2s6.87,3.29,7.41,8.43S58.91,86.54,55.35,87,48.48,83.74,47.95,78.6Z"/>
          <g>
            <path class="d" d="M85.16,31.86h-.1C73,31.89,54,38.81,54,70.92c0,18.59,7.25,27.35,9.89,30.72,2.42,3.08,14.78,13,21.21,13.11h.1c6.44-.1,18.8-10,21.21-13.11,2.64-3.37,9.89-12.13,9.89-30.72C116.26,38.81,97.25,31.89,85.16,31.86Z"/>
            <path class="d" d="M122.37,78.6c.53-5.14-1.92-9.71-5.47-10.2s-6.87,3.29-7.4,8.43S111.41,86.54,115,87,121.84,83.74,122.37,78.6Z"/>
          </g>
          <path d="M84.75,24.06a15.39,15.39,0,0,0-1.83-.13S62.5,25.45,56.82,52c-2.73,2-7.73,10-1.14,18.86.91-7.5,3.66-12.93,8.41-15,8.43-3.67,11.9-.26,21.68-7.76C91.47,43.77,93.52,35,92.26,30A9,9,0,0,0,84.75,24.06Z"/>
          <path d="M91,31.44s-7.36,27.45,24.77,38.95C123.44,45.26,109.38,28.87,91,31.44Z"/>
          <path class="e" d="M122.13,133.75c-4.53-7.08-24.84-13.94-24.84-13.94a26.56,26.56,0,0,1-1,6.52c-2,7.52-11.33,9.82-11.33,9.82s-9.29-2.3-11.33-9.82a26.57,26.57,0,0,1-1-6.52s-20.31,6.86-24.84,13.94c-3.77,11.23-4.81,36.4-4.81,36.4h83.87S125.9,145,122.13,133.75Z"/>
        </g>
      </g>
    </g>
  </g>
</svg>
