<svg xmlns="http://www.w3.org/2000/svg" xmlns:xlink="http://www.w3.org/1999/xlink" viewBox="0 0 170 170">
  <defs>
    <style>
      .a {
        fill: none;
      }

      .b {
        fill: #0f72ba;
      }

      .c {
        clip-path: url(#a);
      }

      .d {
        fill: #f2d8bc;
      }

      .e {
        fill: #d0e1eb;
      }

      .f {
        fill: #fff;
      }

      .g {
        fill: #7c4a24;
      }
    </style>
    <clipPath id="a" transform="translate(0 0)">
      <circle class="a" cx="85" cy="85" r="85"/>
    </clipPath>
  </defs>
  <title>avatar-you-male</title>
  <g>
    <circle class="b" cx="85" cy="85" r="85"/>
    <g class="c">
      <g>
        <g>
          <rect class="d" x="72.55" y="106.43" width="24.89" height="27.29"/>
          <path class="d" d="M122.21,75.08c.53-5.14-1.92-9.71-5.47-10.2s-6.87,3.29-7.41,8.43,1.92,9.71,5.48,10.2S121.68,80.22,122.21,75.08Z" transform="translate(0 0)"/>
          <g>
            <path class="d" d="M85,28.33c-12.09,0-31.2,6.87-31.2,39.07,0,18.59,6.06,30.77,8.7,34.14,2.43,3.1,16.09,9.7,22.5,9.7s20.07-6.6,22.5-9.7c2.64-3.37,8.7-15.55,8.7-34.14C116.2,35.21,97.09,28.33,85,28.33Z" transform="translate(0 0)"/>
            <path class="d" d="M47.79,75.08c-.53-5.14,1.92-9.71,5.47-10.2s6.87,3.29,7.4,8.43S58.75,83,55.19,83.51,48.32,80.22,47.79,75.08Z" transform="translate(0 0)"/>
          </g>
          <path class="e" d="M127.63,129.8c-3.5-3.64-27.16-7.1-27.16-7.1L85,124,69.53,122.7s-23.67,3.46-27.16,7.1C39.33,133,33,163.34,31.54,170H138.46C137,163.34,130.67,133,127.63,129.8Z" transform="translate(0 0)"/>
          <polygon class="f" points="85 123.99 72.36 118.9 69.25 122.06 75.54 136.01 85 123.99"/>
          <polygon class="f" points="85 123.99 97.64 118.9 100.75 122.06 94.46 136.01 85 123.99"/>
        </g>
        <path class="g" d="M116.88,65.64S127.11,19,84.79,19C42.24,19,52.92,64.36,52.92,64.36S58.73,61,58.73,75.91H59.8A167.38,167.38,0,0,0,62.49,57c15,0,28.19-1.92,39.32-11.12,6.32,0,7.18,7.87,7.18,13.89l-2.77,1.07s2.68,5.24,2.87,15.09H111S110.72,59.49,116.88,65.64Z" transform="translate(0 0)"/>
      </g>
    </g>
  </g>
</svg>
